<svg width="69" height="28" viewBox="0 0 69 28" fill="none" xmlns="http://www.w3.org/2000/svg">
<g clip-path="url(#clip0_73_814)">
<path fill-rule="evenodd" clip-rule="evenodd" d="M12.1951 11.9402L15.7964 12.3242C15.9867 12.3441 16.1248 12.5117 16.1045 12.6984C16.0958 12.779 16.0584 12.8502 16.0041 12.9035C15.8287 13.0772 15.6587 13.2419 15.4945 13.4006C14.3972 14.4623 13.5703 15.2628 13.4736 16.6573C13.4223 17.3993 13.8423 18.0851 14.2852 18.8075C14.9512 19.8948 15.6629 21.0566 15.1918 22.7362C14.9632 23.5515 14.5593 24.2898 14.036 24.9687C13.5218 25.6358 12.8881 26.2492 12.1906 26.8248C12.0757 26.9192 11.9169 26.9286 11.7946 26.859L9.89941 25.7859L10.3829 25.275L11.9298 26.1512C12.5132 25.6545 13.0436 25.1273 13.4816 24.559C13.9563 23.9427 14.3209 23.2801 14.5237 22.5585C14.9164 21.1583 14.2831 20.1247 13.6905 19.1574C13.19 18.341 12.7152 17.5656 12.7816 16.6129C12.8956 14.965 13.8 14.0868 15.0006 12.925L11.7021 12.5732L12.1951 11.9402Z" fill="#FBBC0F"/>
<path fill-rule="evenodd" clip-rule="evenodd" d="M3.3361 10.2448L10.1097 10.9672C8.71306 12.3519 7.59836 13.1992 7.47769 14.9395C7.34041 16.9184 9.96376 18.258 9.20779 20.9517C8.77649 22.4894 7.67216 23.7524 6.31818 24.8699L0.5 21.5749C1.53135 20.9159 2.56436 19.7566 2.71033 18.5143C2.91436 16.7801 0.970679 15.1017 1.45878 13.423C1.78929 12.2839 2.41009 11.112 3.3361 10.2448Z" fill="#FBBC0F"/>
<path fill-rule="evenodd" clip-rule="evenodd" d="M7.0084 8.55736L14.694 9.37255C14.8843 9.39249 15.0224 9.5601 15.0021 9.7468C14.9921 9.83914 14.9452 9.91889 14.8776 9.97338L14.2606 10.4847C12.6039 11.8536 11.5916 12.6395 10.943 14.6209C10.5843 15.7168 10.9422 16.7081 11.3428 17.8166C11.8188 19.1337 12.3501 20.6047 11.9462 22.6463C11.7334 23.7203 11.2391 24.6677 10.5445 25.5386C9.86022 26.3957 8.98687 27.1751 7.99992 27.9284C7.87635 28.0224 7.70881 28.022 7.58691 27.9382L1.79442 24.0318C1.63103 23.9342 1.5796 23.7247 1.67913 23.5645C1.7094 23.516 1.75004 23.4774 1.79649 23.4502C2.54294 23.001 3.51167 22.1025 4.11256 21.3707C4.62181 20.7504 5.01038 20.06 5.16257 19.3547C5.37572 18.3678 4.99172 17.3463 4.61144 16.3339C4.14408 15.0903 3.68086 13.8578 4.18306 12.5658C4.49906 11.7539 4.92454 10.9285 5.45576 10.1577C5.94012 9.45476 6.08071 9.20903 6.74298 8.64074C6.81929 8.57528 6.91588 8.54801 7.0084 8.55736ZM13.8169 9.96402L7.08716 9.25014C6.52193 9.7533 6.4585 9.91928 6.03261 10.538C5.53207 11.2645 5.13105 12.0423 4.8333 12.8079C4.42359 13.8618 4.84201 14.9756 5.26417 16.0992C5.67887 17.2028 6.09732 18.3161 5.84267 19.4954C5.66643 20.3122 5.22685 21.0986 4.65374 21.7966C4.12583 22.4401 3.27778 23.2781 2.62256 23.7308L7.76187 27.2455C8.63439 26.5661 9.40117 25.8693 9.99918 25.1204C10.6282 24.3317 11.0749 23.479 11.2653 22.5186C11.6339 20.6572 11.1354 19.2786 10.6892 18.0436C10.2475 16.822 9.8532 15.7294 10.2837 14.4134C10.9924 12.2482 12.0768 11.4028 13.8156 9.96649L13.8169 9.96402Z" fill="#FBBC0F"/>
<path fill-rule="evenodd" clip-rule="evenodd" d="M3.15262 11.4101C3.03858 11.3975 2.95647 11.2958 2.96933 11.1839C2.98218 11.0721 3.08585 10.9916 3.1999 11.0042L8.38773 11.5903C8.50177 11.6029 8.58387 11.7046 8.57105 11.8165C8.55817 11.9284 8.4545 12.0089 8.34046 11.9963L3.15262 11.4101ZM2.4522 13.728C2.33816 13.7154 2.25605 13.6137 2.2689 13.5018C2.28176 13.3899 2.38543 13.3094 2.49947 13.322L5.3024 13.6389C5.41645 13.6515 5.49855 13.7532 5.4857 13.865C5.47284 13.9769 5.36917 14.0575 5.25513 14.0449L2.4522 13.728ZM2.54426 12.5438C2.43022 12.5312 2.34811 12.4295 2.36097 12.3176C2.37382 12.2058 2.4775 12.1252 2.59154 12.1378L6.51829 12.5817C6.63233 12.5943 6.71443 12.696 6.70161 12.8078C6.68873 12.9197 6.58506 13.0002 6.47102 12.9876L2.54426 12.5438Z" fill="#FBBC0F"/>
<path fill-rule="evenodd" clip-rule="evenodd" d="M3.6077 18.888C3.44555 19.8639 2.59294 20.7983 1.96924 21.3792C2.36444 21.6294 2.65058 21.8104 3.04578 22.061C3.97222 21.3959 4.79 20.518 4.80161 19.3152L3.6077 18.888ZM4.85801 17.8052L6.1411 18.0452C6.30034 18.6294 6.48032 19.1504 6.5064 19.7459C6.56242 21.0338 5.67413 22.3331 4.7025 23.0303C4.30729 22.7797 3.91167 22.5296 3.51647 22.279C4.16713 21.6729 5.06701 20.6824 5.17234 19.6609C5.23869 19.0129 5.07697 18.4149 4.85801 17.8052ZM5.93953 16.5051C6.10833 17.8865 7.16868 18.6724 6.83526 20.4261C6.64369 21.4349 5.82134 22.4458 5.17069 23.0519C5.56589 23.3024 5.83461 23.4725 6.22983 23.7227C7.20184 23.0255 7.78246 22.041 8.1573 20.8865C8.73954 19.0935 7.38974 18.0293 7.10152 16.7199C6.66481 16.6393 6.3762 16.5856 5.93953 16.5051Z" fill="#FBBC0F"/>
<path d="M10.2539 7.77777C12.301 7.77777 13.9605 6.03666 13.9605 3.88889C13.9605 1.74111 12.301 0 10.2539 0C8.20685 0 6.54736 1.74111 6.54736 3.88889C6.54736 6.03666 8.20685 7.77777 10.2539 7.77777Z" fill="#F48C0D"/>
<path d="M13.3475 3.5C13.3475 5.19788 11.9657 6.58 10.2541 6.58C8.54244 6.58 7.16064 5.19788 7.16064 3.5C7.16064 1.80211 8.54244 0.419998 10.2541 0.419998C11.9657 0.419998 13.3475 1.80211 13.3475 3.5Z" fill="#FBBC0F" stroke="#FBBC0F" stroke-width="1.5"/>
<path d="M18.6436 25.2V13.1018H22.2732V14.8758C22.6819 14.2188 23.2297 13.7178 23.9163 13.3728C24.603 13.0278 25.3715 12.8554 26.2217 12.8554C27.6441 12.8554 28.7068 13.2742 29.4098 14.112C30.1129 14.9334 30.4644 16.2064 30.4644 17.9312V25.2H26.7612V18.1037C26.7612 17.2659 26.6059 16.6663 26.2952 16.305C25.9846 15.9271 25.5268 15.7382 24.9219 15.7382C24.1371 15.7382 23.5076 15.9846 23.0335 16.4774C22.5757 16.9702 22.3468 17.6273 22.3468 18.4486V25.2H18.6436ZM36.6653 25.2L31.417 13.1018H35.3164L38.333 20.7894L41.4476 13.1018H45.1017L39.7799 25.2H36.6653ZM50.0413 25.471C49.1421 25.471 48.3491 25.2986 47.6624 24.9536C46.9758 24.6086 46.4281 24.1405 46.0193 23.5491C45.6269 22.9578 45.4307 22.2925 45.4307 21.5533C45.4307 20.6826 45.6596 19.9846 46.1174 19.4589C46.5752 18.9332 47.3191 18.5636 48.3491 18.3501C49.3792 18.1201 50.7444 18.0051 52.4447 18.0051H53.3276V17.5862C53.3276 16.8634 53.1641 16.3542 52.8371 16.0586C52.5102 15.7465 51.9542 15.5904 51.1695 15.5904C50.5155 15.5904 49.8206 15.6972 49.0849 15.9107C48.3655 16.1078 47.6461 16.4118 46.9267 16.8224L45.9212 14.3338C46.3463 14.0545 46.8613 13.7999 47.4662 13.5699C48.0876 13.3399 48.7334 13.1674 49.4037 13.0525C50.074 12.921 50.7117 12.8554 51.3166 12.8554C53.1805 12.8554 54.5702 13.2825 55.4858 14.1366C56.4014 14.9744 56.859 16.2803 56.859 18.0544V25.2H53.4012V23.3766C53.1559 24.0173 52.739 24.5265 52.1504 24.9043C51.5782 25.2822 50.8752 25.471 50.0413 25.471ZM50.8752 22.9824C51.5619 22.9824 52.1423 22.7442 52.6164 22.2678C53.0906 21.7914 53.3276 21.1754 53.3276 20.4198V19.927H52.4693C51.2104 19.927 50.3193 20.042 49.7961 20.272C49.2729 20.4855 49.0113 20.8634 49.0113 21.4054C49.0113 21.8654 49.1666 22.2432 49.4773 22.5389C49.8043 22.8346 50.2702 22.9824 50.8752 22.9824ZM59.6219 25.2V13.1018H63.2515V15.1962C63.8234 13.7834 65.0496 13.0032 66.9302 12.8554L68.0093 12.7814L68.23 15.9107L66.1455 16.1325C64.3139 16.3132 63.3987 17.2495 63.3987 18.9414V25.2H59.6219Z" fill="black"/>
</g>
<defs>
<clipPath id="clip0_73_814">
<rect width="68" height="28" fill="white" transform="translate(0.5)"/>
</clipPath>
</defs>
</svg>
